<svg width="24" height="24" viewBox="0 0 24 24" fill="none" xmlns="http://www.w3.org/2000/svg">
<path d="M19.84 11.51V4.15998L12 0.72998L4.16001 4.15998V11.51H2.20001V15.43L4.16001 16.41V19.84L12 23.27L19.84 19.84V16.41L21.8 15.43V11.51H19.84Z" fill="white"/>
<path d="M12 0.72998V4.15998L14.94 5.62998V7.58998H19.84V4.15998L12 0.72998ZM12 23.27L19.84 19.84V16.9L12 14.94" fill="#FCA8AC"/>
<path d="M19.84 19.84L12 23.27L4.16 19.84V4.15998L12 0.72998L19.84 4.15998V19.84Z" stroke="#FE5B63" stroke-miterlimit="10" stroke-linecap="round" stroke-linejoin="round"/>
<path d="M4.16001 11.51H2.20001V15.43L4.16001 16.41M19.84 11.51H21.8V15.43L19.84 16.41M9.06001 12.49V13.47M14.94 12.49V13.47M4.16001 7.59003H9.06001M14.94 7.59003H19.84M4.16001 16.9V19.84L12 23.27L19.84 19.84V16.9L12 14.94L4.16001 16.9ZM14.94 9.55003L12 11.02L9.06001 9.55003V5.63003L12 4.16003L14.94 5.63003V9.55003Z" stroke="#FE5B63" stroke-miterlimit="10" stroke-linecap="round" stroke-linejoin="round"/>
<path d="M11.93 6.13501L10.476 7.59001L11.932 9.04501L13.387 7.59001L11.93 6.13501Z" stroke="#FE5B63" stroke-miterlimit="10" stroke-linecap="round" stroke-linejoin="round"/>
</svg>
