<svg width="212" height="58" viewBox="0 0 212 58" fill="none" xmlns="http://www.w3.org/2000/svg">
<path d="M3.03409 11.0909H12.1364L21.75 34.5455H22.1591L31.7727 11.0909H40.875V46H33.7159V23.2784H33.4261L24.392 45.8295H19.517L10.483 23.1932H10.1932V46H3.03409V11.0909ZM51.3026 55.8182C50.3821 55.8182 49.5185 55.7443 48.7116 55.5966C47.9162 55.4602 47.2571 55.2841 46.7344 55.0682L48.3707 49.6477C49.223 49.9091 49.9901 50.0511 50.6719 50.0739C51.3651 50.0966 51.9616 49.9375 52.4616 49.5966C52.973 49.2557 53.3878 48.6761 53.706 47.858L54.1321 46.75L44.7401 19.8182H52.3764L57.7969 39.0455H58.0696L63.5412 19.8182H71.2287L61.0526 48.8295C60.5639 50.2386 59.8991 51.4659 59.0582 52.5114C58.2287 53.5682 57.1776 54.3807 55.9048 54.9489C54.6321 55.5284 53.098 55.8182 51.3026 55.8182ZM98.5653 46H86.1903V11.0909H98.6676C102.179 11.0909 105.202 11.7898 107.736 13.1875C110.27 14.5739 112.219 16.5682 113.582 19.1705C114.957 21.7727 115.645 24.8864 115.645 28.5114C115.645 32.1477 114.957 35.2727 113.582 37.8864C112.219 40.5 110.259 42.5057 107.702 43.9034C105.156 45.3011 102.111 46 98.5653 46ZM93.571 39.6761H98.2585C100.44 39.6761 102.276 39.2898 103.764 38.517C105.264 37.733 106.389 36.5227 107.139 34.8864C107.901 33.2386 108.281 31.1136 108.281 28.5114C108.281 25.9318 107.901 23.8239 107.139 22.1875C106.389 20.5511 105.27 19.3466 103.781 18.5739C102.293 17.8011 100.457 17.4148 98.2756 17.4148H93.571V39.6761ZM209.191 23.3125H201.725C201.589 22.3466 201.31 21.4886 200.89 20.7386C200.469 19.9773 199.929 19.3295 199.27 18.7955C198.611 18.2614 197.85 17.8523 196.986 17.5682C196.134 17.2841 195.208 17.142 194.208 17.142C192.401 17.142 190.827 17.5909 189.486 18.4886C188.145 19.375 187.106 20.6705 186.367 22.375C185.628 24.0682 185.259 26.125 185.259 28.5455C185.259 31.0341 185.628 33.125 186.367 34.8182C187.117 36.5114 188.162 37.7898 189.503 38.6534C190.844 39.517 192.395 39.9489 194.157 39.9489C195.145 39.9489 196.06 39.8182 196.901 39.5568C197.753 39.2955 198.509 38.9148 199.168 38.4148C199.827 37.9034 200.373 37.2841 200.804 36.5568C201.248 35.8295 201.554 35 201.725 34.0682L209.191 34.1023C208.998 35.7045 208.515 37.25 207.742 38.7386C206.981 40.2159 205.952 41.5398 204.657 42.7102C203.373 43.8693 201.839 44.7898 200.054 45.4716C198.282 46.142 196.276 46.4773 194.037 46.4773C190.924 46.4773 188.14 45.7727 185.685 44.3636C183.242 42.9545 181.31 40.9148 179.89 38.2443C178.481 35.5739 177.776 32.3409 177.776 28.5455C177.776 24.7386 178.492 21.5 179.924 18.8295C181.356 16.1591 183.299 14.125 185.753 12.7273C188.208 11.3182 190.969 10.6136 194.037 10.6136C196.06 10.6136 197.935 10.8977 199.662 11.4659C201.401 12.0341 202.941 12.8636 204.282 13.9545C205.623 15.0341 206.714 16.358 207.554 17.9261C208.407 19.4943 208.952 21.2898 209.191 23.3125Z" fill="url(#paint0_linear_86_289)"/>
<path fill-rule="evenodd" clip-rule="evenodd" d="M167.684 34.4209C164.212 40.1825 159.07 46.3966 152.258 53.0633L150.226 55.0187C149.879 55.3468 149.528 55.6759 149.174 56.0061L147 58C145.889 56.9966 144.814 56.0029 143.774 55.0187L141.742 53.0633C134.93 46.3966 129.788 40.1825 126.316 34.4209L133.255 34.421C136.332 38.8506 140.504 43.6698 145.797 48.8473L147 50.0097L147.202 49.8186C152.972 44.2714 157.476 39.1264 160.745 34.4209L167.684 34.4209ZM138.3 10.1463L147 27.8278L151.35 18.9884L154.592 25.5789H176V31.4737H151.692L147 41.0116L138.3 23.3272L134.292 31.4737H118V25.5789H130.705L138.3 10.1463ZM157.44 2C166.089 2 173.1 9.12585 173.1 17.9158C173.1 19.4423 172.933 21.0142 172.598 22.6314L166.638 22.6315C167.022 21.1874 167.239 19.8093 167.289 18.4991L167.3 17.9158C167.3 12.3814 162.885 7.89474 157.44 7.89474C155.2 7.89474 153.089 8.6506 151.376 10.0162L150.874 10.444L147.005 13.9691L143.133 10.4463C141.335 8.81006 139.025 7.89474 136.56 7.89474C131.114 7.89474 126.7 12.3813 126.7 17.9158C126.7 19.3985 126.92 20.9714 127.362 22.6315L121.402 22.6314C121.067 21.0142 120.9 19.4423 120.9 17.9158C120.9 9.12574 127.911 2 136.56 2C140.572 2 144.231 3.53328 147.002 6.05472C149.771 3.53232 153.429 2 157.44 2Z" fill="url(#paint1_linear_86_289)"/>
<defs>
<linearGradient id="paint0_linear_86_289" x1="0" y1="29" x2="212" y2="29" gradientUnits="userSpaceOnUse">
<stop stop-color="#5139F6"/>
<stop offset="0.341288" stop-color="#7F53F8"/>
<stop offset="0.857706" stop-color="#AC6CFA"/>
</linearGradient>
<linearGradient id="paint1_linear_86_289" x1="118" y1="30" x2="176" y2="30" gradientUnits="userSpaceOnUse">
<stop stop-color="#6745F7"/>
<stop offset="1" stop-color="#AC6CFA"/>
</linearGradient>
</defs>
</svg>
